<svg fill="#b79347" viewBox="-9.28 -9.28 50.56 50.56" version="1.1" xmlns="http://www.w3.org/2000/svg" stroke="#b79347" stroke-width="0.00032" transform="rotate(0)"><g id="SVGRepo_bgCarrier" stroke-width="0"><rect x="-9.28" y="-9.28" width="50.56" height="50.56" rx="25.28" fill="#ffffff" strokewidth="0"></rect></g><g id="SVGRepo_tracerCarrier" stroke-linecap="round" stroke-linejoin="round"></g><g id="SVGRepo_iconCarrier"> <title>alt-paperclip</title> <path d="M2.016 18.016q0 2.848 1.088 5.44t2.976 4.448 4.48 3.008 5.44 1.088 5.44-1.088 4.48-3.008 2.976-4.448 1.12-5.44v-16q0-0.832-0.608-1.408t-1.408-0.608-1.408 0.608-0.576 1.408v16q0 2.72-1.344 5.024t-3.648 3.616-5.024 1.344q-2.016 0-3.872-0.8t-3.2-2.112-2.144-3.2-0.768-3.872v-8q0-2.496 1.728-4.256t4.256-1.76 4.256 1.76 1.76 4.256v5.984q0 0.832-0.608 1.44t-1.408 0.576-1.408-0.576-0.576-1.44v-5.984q0-0.832-0.608-1.408t-1.408-0.608-1.408 0.608-0.576 1.408v5.984q0 2.496 1.728 4.256t4.256 1.76 4.256-1.76 1.76-4.256v-5.984q0-2.048-0.8-3.872t-2.144-3.2-3.2-2.144-3.872-0.8q-2.72 0-5.024 1.344t-3.616 3.648-1.344 5.024v8z"></path> </g></svg>